<?xml version="1.0" encoding="UTF-8"?>
<!DOCTYPE svg PUBLIC "-//W3C//DTD SVG 1.1//EN" "http://www.w3.org/Graphics/SVG/1.1/DTD/svg11.dtd">
<!-- Creator: CorelDRAW X8 -->
<svg xmlns="http://www.w3.org/2000/svg" xml:space="preserve" width="140mm" height="70mm" version="1.1" shape-rendering="geometricPrecision" text-rendering="geometricPrecision" image-rendering="optimizeQuality" fill-rule="evenodd" clip-rule="evenodd"
viewBox="0 0 14000 7000"
 xmlns:xlink="http://www.w3.org/1999/xlink">
 <g id="Слой_x0020_1">
  <metadata id="CorelCorpID_0Corel-Layer"/>
  <g transform="matrix(0.968131 0 -0.258817 0.965926 697.215 583.993)">
   <text x="7000" y="3500"  fill="black" font-weight="normal" font-size="355.51px" font-family="Arial Narrow"> </text>
  </g>
  <path fill="none" fill-rule="nonzero" stroke="black" stroke-width="17.99" d="M9746 5352l-2 -21 -4 -21 -7 -19 -10 -19 -12 -18 -14 -15 -17 -13 -18 -11 -19 -9 -21 -5 -21 -3 -21 0 -21 3 -20 5 -19 9 -19 11 -16 13 -14 15 -13 18 -9 19 -7 19 -5 21 -1 21 1 21 5 21 7 20 9 19 13 17 14 16 16 13 19 11 19 8 20 6 21 3 21 0 21 -3 21 -6 19 -8 18 -11 17 -13 14 -16 12 -17 10 -19 7 -20 4 -21 2 -21zm-244 222l177 -443"/>
  <g transform="matrix(1.07201 0 -0.258817 0.965926 3248.35 2136.43)">
   <text x="7000" y="3500"  fill="black" font-weight="normal" font-size="509.68px" font-family="Calibri"> трубы </text>
  </g>
  <g transform="matrix(0.222614 -1.05259 0.891469 0.453082 3313.47 11535.9)">
   <text x="7000" y="3500"  fill="black" font-weight="normal" font-size="509.68px" font-family="Calibri"> стенка </text>
  </g>
  <g transform="matrix(0.251766 -1.19043 0.891469 0.453082 3702.26 12372)">
   <text x="7000" y="3500"  fill="black" font-weight="normal" font-size="509.68px" font-family="Calibri">трубы</text>
  </g>
  <g transform="matrix(0.985578 0 -0.258817 0.965926 -5511.4 -2614.16)">
   <text x="7000" y="3500"  fill="black" font-weight="normal" font-size="509.68px" font-family="Arial Narrow"> </text>
   <text x="7116" y="3500"  fill="black" font-weight="normal" font-size="509.68px" font-family="Calibri">R скругления </text>
  </g>
  <g transform="matrix(0.997435 0 -0.258817 0.965926 -2312.23 3203.25)">
   <text x="7000" y="3500"  fill="black" font-weight="normal" font-size="509.68px" font-family="Calibri"> R пер. кромки </text>
  </g>
  <g transform="matrix(0.988846 0 -0.258817 0.965926 1249.2 -2085.88)">
   <text x="7000" y="3500"  fill="black" font-weight="normal" font-size="509.68px" font-family="Calibri"> хорда </text>
  </g>
  <polyline fill="none" fill-rule="nonzero" stroke="black" stroke-width="17.99" stroke-dasharray="1523.880000 169.320000 169.320000 169.320000" points="12398,5041 12246,4952 12093,4866 11938,4781 11782,4700 11624,4621 11466,4544 11305,4470 11144,4399 10982,4331 10819,4265 10654,4201 10488,4141 10322,4083 10155,4028 9986,3975 9817,3926 9647,3879 9477,3835 9305,3793 9133,3755 8961,3719 8788,3686 8614,3656 8440,3629 8265,3605 8090,3583 7915,3565 7739,3549 7564,3536 7388,3526 7212,3519 7035,3515 6859,3513 6683,3515 6507,3519 6331,3526 6155,3536 5979,3549 5803,3565 5628,3584 5453,3605 5279,3630 5104,3657 4931,3687 4758,3720 4585,3756 4413,3794 4242,3836 4071,3880 3901,3927 3732,3977 3564,4029 3396,4084 3230,4142 3065,4203 2900,4266 2737,4332 2574,4401 2413,4472 2253,4546 2094,4623 1937,4702 1781,4783 "/>
  <polyline fill="none" fill-rule="nonzero" stroke="black" stroke-width="17.99" stroke-dasharray="1523.880000 169.320000 169.320000 169.320000" points="13508,4962 13358,4857 13207,4755 13055,4655 12900,4558 12745,4463 12587,4371 12428,4281 12268,4194 12107,4109 11944,4027 11780,3948 11614,3871 11448,3796 11280,3725 11111,3656 10941,3590 10770,3526 10598,3465 10426,3407 10252,3352 10077,3299 9902,3250 9725,3203 9548,3159 9371,3117 9192,3079 9014,3043 8834,3010 8654,2980 8474,2953 8293,2929 8112,2908 7931,2889 7749,2874 7567,2861 7385,2851 7203,2844 7020,2840 6838,2839 6655,2841 6473,2846 6291,2854 6109,2864 5927,2877 5745,2894 5564,2913 5383,2935 5202,2960 5022,2988 4842,3018 4663,3052 4484,3088 4306,3128 4129,3170 3952,3214 3776,3262 3601,3313 3426,3366 3253,3422 3080,3481 2908,3542 2738,3606 2568,3673 2399,3743 2232,3815 2066,3890 1900,3968 1737,4048 1574,4131 1413,4216 1253,4304 1095,4394 "/>
  <path fill="none" fill-rule="nonzero" stroke="black" stroke-width="17.99" d="M11409 1406l-431 71 0 -143 431 72zm-7169 0l430 -72 0 143 -430 -71z"/>
  <polygon fill="none" fill-rule="nonzero" stroke="black" stroke-width="17.99" points="10957,3596 10737,3972 10871,4023 "/>
  <path fill="none" fill-rule="nonzero" stroke="black" stroke-width="17.99" d="M8555 3633l-19 435 -140 -29 159 -406zm139 -660l19 -435 140 29 -159 406z"/>
  <polygon fill="none" fill-rule="nonzero" stroke="black" stroke-width="17.99" points="4375,3718 4148,4091 4281,4144 "/>
  <polygon fill="none" fill-rule="nonzero" stroke="black" stroke-width="17.99" points="4738,3157 4621,2737 4491,2797 "/>
  <path fill="none" fill-rule="nonzero" stroke="black" stroke-width="17.99" stroke-linecap="round" stroke-linejoin="round" d="M11409 3564l0 -2302m-7169 2770l0 -2770m7169 144l-7169 0"/>
  <line fill="none" fill-rule="nonzero" stroke="black" stroke-width="17.99" stroke-linecap="round" stroke-linejoin="round" x1="10957" y1="3596" x2="10392" y2= "5074" />
  <line fill="none" fill-rule="nonzero" stroke="black" stroke-width="17.99" stroke-linecap="round" stroke-linejoin="round" x1="8694" y1="2973" x2="8813" y2= "2412" />
  <line fill="none" fill-rule="nonzero" stroke="black" stroke-width="17.99" stroke-linecap="round" stroke-linejoin="round" x1="8555" y1="3633" x2="8694" y2= "2973" />
  <line fill="none" fill-rule="nonzero" stroke="black" stroke-width="17.99" stroke-linecap="round" stroke-linejoin="round" x1="8555" y1="3633" x2="8101" y2= "5777" />
  <line fill="none" fill-rule="nonzero" stroke="black" stroke-width="17.99" stroke-linecap="round" stroke-linejoin="round" stroke-dasharray="1523.880000 169.320000 169.320000 169.320000" x1="12065" y1="3779" x2="3289" y2= "3779" />
  <line fill="none" fill-rule="nonzero" stroke="black" stroke-width="17.99" stroke-linecap="round" stroke-linejoin="round" x1="3181" y1="6695" x2="6470" y2= "6695" />
  <line fill="none" fill-rule="nonzero" stroke="black" stroke-width="17.99" stroke-linecap="round" stroke-linejoin="round" x1="4375" y1="3718" x2="3181" y2= "6695" />
  <path fill="none" fill-rule="nonzero" stroke="black" stroke-width="17.99" stroke-linecap="round" stroke-linejoin="round" d="M4738 3157l-1064 -2280m0 0l-3192 0"/>
  <g>
   <path fill="black" fill-rule="nonzero" d="M11409 1406l-431 71 0 -143 431 72zm-7169 0l430 -72 0 143 -430 -71z"/>
  </g>
  <polygon fill="black" fill-rule="nonzero" points="10957,3596 10737,3972 10871,4023 "/>
  <g>
   <path fill="black" fill-rule="nonzero" d="M8555 3633l-19 435 -140 -29 159 -406zm139 -660l19 -435 140 29 -159 406z"/>
  </g>
  <polygon fill="black" fill-rule="nonzero" points="4375,3718 4148,4091 4281,4144 "/>
  <polygon fill="black" fill-rule="nonzero" points="4738,3157 4621,2737 4491,2797 "/>
  <path fill="none" fill-rule="nonzero" stroke="black" stroke-width="49.99" stroke-linecap="round" stroke-linejoin="round" d="M4334 3387l-48 45 -32 57 -14 64 7 66 26 60 43 50 56 34 64 15 66 -4m1144 -870l-175 24 -173 35 -170 45 -168 56 -164 66 -159 76 -154 86 -149 95m7075 392l-455 -185 -463 -165 -469 -145 -475 -126 -479 -104 -484 -85 -487 -63 -489 -42 -491 -22 -491 0 -490 20 -490 42m1897 631l3866 244m-6907 -5l375 -77 377 -64 379 -50 381 -37 382 -23 382 -9 383 3 382 18"/>
 </g>
</svg>
